<svg viewBox="0 0 101 13" xmlns="http://www.w3.org/2000/svg" fill-rule="evenodd" clip-rule="evenodd" stroke-linejoin="round" stroke-miterlimit="1.414"><path d="M7.456 6.089v1.646h1.843v1.449c-.208.215-1.371 1.33-3.072 1.33-2.338 0-4.035-1.811-4.035-4.307 0-2.489 1.699-4.227 4.131-4.227 1.847 0 3.09 1.063 3.102 1.073l.114.1.949-1.405-.081-.078c-.059-.057-1.481-1.4-4.213-1.4C2.828.27.29 2.836.29 6.239c0 3.421 2.449 6.001 5.696 6.001 1.766 0 2.913-.821 3.364-1.216a5.526 5.526 0 0 0-.003.185v.839h1.662V6.089H7.456zM15.883 10.402V.462h-1.854v11.586h6.92v-1.646h-5.066zM41.08 5.224h-2.239V2.108h2.207c.98 0 1.566.574 1.566 1.534 0 .946-.617 1.582-1.534 1.582m.176 5.178h-2.415V6.806h2.399c1.107 0 1.823.708 1.823 1.806 0 1.104-.692 1.79-1.807 1.79m1.983-4.493c.794-.512 1.261-1.401 1.261-2.427 0-1.835-1.342-3.02-3.42-3.02h-4.093v11.586h4.189c2.292 0 3.773-1.318 3.773-3.356 0-1.292-.663-2.356-1.71-2.783M55.118.462v7.412c0 1.653-1.029 2.64-2.752 2.64-1.703 0-2.72-.975-2.72-2.608V.462h-1.854v7.444c0 2.592 1.845 4.334 4.591 4.334 2.745 0 4.59-1.742 4.59-4.334V.462h-1.855zM62.499 10.402c-.232 0-.42.005-.562.012.155-.18.389-.466.639-.828l5.475-7.906V.462h-8.219v1.646h5.264c.226 0 .412-.008.553-.017a9.642 9.642 0 0 0-.631.834l-5.474 7.889v1.234h8.571v-1.646h-5.616zM73.032 10.402c-.232 0-.421.005-.562.012.155-.18.388-.466.639-.828l5.475-7.906V.462h-8.219v1.646h5.264c.226 0 .412-.008.553-.017a9.44 9.44 0 0 0-.631.834l-5.475 7.889v1.234h8.572v-1.646h-5.616zM83.345 10.402V7.03h4.056V5.384h-4.056V2.108h4.986V.462h-6.84v11.586h7.113v-1.646h-5.259zM93.334 2.108h1.693c.862 0 1.21.093 1.49.24.543.301.83.865.83 1.631 0 1.183-.717 1.918-1.871 1.918h-2.142V2.108zm4.182 5.348a4.805 4.805 0 0 0-.255-.408c1.204-.467 1.972-1.678 1.972-3.134 0-1.504-.764-2.725-1.995-3.187-.442-.163-.958-.265-2.162-.265h-3.597v11.586h1.855V7.543h2.206l2.389 4.505h2.101l-2.514-4.592zM27.422 3.325l-.086.007-.017.083-.065.041-.106.008-.006-.043h-.041v-.089h.172l.036-.091.068-.002.078.016-.033.07zm-.438.153l-.125.01.007-.086.055-.07.076.059-.013.087zm3.26-.738l.12-.192.161-.037.115.049-.01.13-.247.175h-.139V2.74zm.323-.374l.055-.085.197-.039.05.239.105.169.07.081.127.049-.12.142-.232.023h-.174l.02-.207.144-.03-.012-.098-.135-.084-.095-.065v-.095zm1.684 2.139l.104.075h.098v-.187l.306-.03.291.217h.479l.034-.031a6.318 6.318 0 0 0-.162-.475l-.313.005-.157-.172-.03-.277-.161.088-.086.338-.232-.247-.009-.233-.224-.193-.083-.081h-.26l.083.23.312.175.054.057-.067.034.003.183-.153.064-.13-.028-.081-.116.211.012.058-.077-.469-.316-.036-.135-.19.172-.193-.039-.293.382-.058.149-.188.017-.278.002-.166-.078-.049-.33.06-.157.282-.062.309.062.037-.171-.131-.03.045-.267.311-.048.216-.307.224-.037.203.029h.074l-.04-.287-.246.099-.087-.215-.143-.02-.026-.148.116-.126.277-.109.071-.127A5.974 5.974 0 0 0 27.807.24a5.964 5.964 0 0 0-3.525 1.149l.303-.002.134.074.254.055.02.1.404.015-.055-.13-.359-.01.085-.08-.029-.094h-.325l.354-.265h.339l.159.22.265.015.16-.155.119.06-.219.214-.29.005c.016 0 .026.21.026.21l.369-.011.039-.099.255-.015.03-.149-.15-.026.05-.134.115-.035.398.02-.219.2.035.154.229.035-.015-.279.22-.115.389-.045.563.25v.214l.18.045-.09.169h-.254l-.075.194-.582-.137.457-.243-.174-.148-.394.05-.035.036-.001-.001-.007.009-.113.118-.187.016.015.093.065.027-.002.031-.153.021-.011.088-.146.008-.026-.175-.262.079-.534.313.059.221.15.097.299.041v.341l.138-.023.128-.266.318-.1v-.408l.176-.133.428.1-.03.27h.115l.314-.155.015.354.229.14-.01.209-.219.075.015.07.264.119-.005.145-.077.007-.001-.004-.333-.103-.014-.107.097-.067v-.098l-.105-.025-.026.089-.184.028-.018-.006V3l-.063.01-.052-.106-.061-.025h-.131l-.059.048v.108l.112.038.11.015-.024.011-.101.112-.044-.056-.098-.026-.266.25.035.029-.392.217-.369.384-.026.171-.37.243-.183.184.02.369-.254-.118.002-.216h-.708l-.366.186-.159.293-.064.233.103.225.289.036.459-.308.04.153-.139.264.349.06.035.54.478.081.304-.352.369.075.13.181.354-.021.01-.105.194.095.22.344.378.005.14.244.02.299.419.16.528.005.155.254.235.075-.046.21-.256.326-.075.722-.232.183-.344-.01-.115.199.085.374-.374.479-.119.219-.357.172-.235.035-.009.1.164.047-.02.107-.147.142.09.113.177.005-.01.137-.047.134-.015.11.262.221-.035.115-.357-.007-.355-.311-.277-.486.039-.469-.21-.28.085-.473-.124-.035V8.716s-.35-.265-.369-.265c-.02 0-.185-.044-.185-.044l-.035-.195-.453-.568.044-.205.015-.334.314-.219-.045-.374-.458-.035-.359-.409-.255-.07-.164-.029.02-.15-.21-.03v.085l-.523-.13-.211-.322.086-.156-.331-.484-.058-.354h-.134l.045.343.229.355-.025.14-.194-.03-.24-.408v-.475l-.249-.12v-.341a5.964 5.964 0 0 0-.479 2.348c0 3.308 2.692 6 6 6a5.993 5.993 0 0 0 4.654-2.218h-.198v-.398l-.229-.309v-.479l-.175-.175-.015-.2.222-.423-.422-.743.05-.504-.378-.04-.14-.139h-.255l-.129.119h-.449l-.015.04h-.249l-.573-.653.004-.508.095-.035.035-.195h-.134l-.055-.204.663-.479v-.339l.324-.18.132.013h.267l.209-.112.673-.053v.345l.532.134z" fill="#fff" fill-rule="nonzero"/></svg>